<?xml version="1.0" encoding="utf-8"?>
<!-- Generator: Adobe Illustrator 21.0.0, SVG Export Plug-In . SVG Version: 6.00 Build 0)  -->
<svg version="1.1" id="Capa_1" xmlns:sketch="http://www.bohemiancoding.com/sketch/ns"
	 xmlns="http://www.w3.org/2000/svg" xmlns:xlink="http://www.w3.org/1999/xlink" x="0px" y="0px" viewBox="0 0 80 66"
	 style="enable-background:new 0 0 80 66;" xml:space="preserve">
<style type="text/css">
	.st0{fill:#2C3E50;}
	.st1{fill:#1ABC9C;}
	.st2{fill:#FFFFFF;}
	.st3{fill:none;stroke:#000000;stroke-width:6.912516e-02;stroke-miterlimit:10;}
	.st4{fill:#FFFFFF;stroke:#FFFFFF;stroke-miterlimit:10;}
</style>
<title>fi-bitcoin-circle + Oval 356 + ios7-redo Copy 4</title>
<desc>Created with Sketch.</desc>
<ellipse transform="matrix(0.2422 -0.9702 0.9702 0.2422 -6.9704 55.814)" class="st0" cx="32.2" cy="32.4" rx="31.5" ry="31.5"/>
<ellipse transform="matrix(0.2422 -0.9702 0.9702 0.2422 -6.9161 55.976)" class="st0" cx="32.4" cy="32.4" rx="28.5" ry="27.5"/>
<g id="Page-1" sketch:type="MSPage">
	<g id="Copay-v1-Buy-_x2013_-Main" transform="translate(-34.000000, -387.000000)" sketch:type="MSArtboardGroup">
		
			<g id="fi-bitcoin-circle-_x2B_-Oval-356-_x2B_-ios7-redo-Copy-4" transform="translate(34.000000, 387.000000)" sketch:type="MSLayerGroup">
			<g id="Oval-356-_x2B_-ios7-redo" transform="translate(48.000000, 34.000000)" sketch:type="MSShapeGroup">
				<g>
					<circle id="Oval-356_1_" class="st1" cx="15" cy="15" r="15"/>
					<path class="st2" d="M15,31C6.2,31-1,23.8-1,15S6.2-1,15-1s16,7.2,16,16S23.8,31,15,31z M15,1C7.3,1,1,7.3,1,15s6.3,14,14,14
						s14-6.3,14-14S22.7,1,15,1z"/>
				</g>
				<g id="plus-round" transform="translate(7.000000, 7.000000)">
					<path id="Shape_3_" class="st2" d="M14.7,6.7H9.3V1.3C9.3,0.6,8.7,0,8,0S6.7,0.6,6.7,1.3v5.4H1.3C0.6,6.7,0,7.3,0,8
						s0.6,1.3,1.3,1.3h5.4v5.4C6.7,15.4,7.3,16,8,16s1.3-0.6,1.3-1.3V9.3h5.4C15.4,9.3,16,8.7,16,8S15.4,6.7,14.7,6.7L14.7,6.7z"/>
				</g>
			</g>
		</g>
	</g>
</g>
<g>
	<g>
		<path class="st3" d="M26.3,10.3"/>
	</g>
</g>
<g>
	<g>
		<path class="st3" d="M27.1,10.7"/>
	</g>
</g>
<ellipse transform="matrix(0.3712 -0.9285 0.9285 0.3712 7.7018 32.9356)" class="st2" cx="28.2" cy="10.8" rx="0.8" ry="0.8"/>
<path class="st4" d="M31.5,23.5c-2.2,1.8-7.6,6.8-8.3,14.3c-0.1,1.3-0.1,2.5,0.1,3.6c-2.9,3-7.7,2.7-9.9-0.1c-2-2.6-1.6-6.8,1.4-9.2
	c-0.3-0.6-2.8-5.7-0.6-9.1C16.6,19.4,24.4,18.3,31.5,23.5z"/>
<ellipse transform="matrix(0.2363 -0.9717 0.9717 0.2363 -1.9159 56.9679)" class="st2" cx="35.3" cy="29.7" rx="1.5" ry="1.5"/>
<path class="st2" d="M33.9,45.5c0.4,0.2,1,0.4,1.7,0.6c0.3,0.1,0.8,0.1,1.4,0.1c0.4,0,1.1-0.1,1.9-0.6c0.4-0.2,0.7-0.5,0.7-0.6
	c0.2-0.2,0.4-0.5,0.5-0.7c0.2-0.3,0.3-0.5,0.4-0.7c0,0.1,0,0.3-0.1,0.5c-0.2,0.6-0.4,0.9-0.6,1.2c-0.3,0.4-0.7,0.7-1,1
	c1.3-0.1,3-0.5,4.8-1.5c3-1.7,4.5-4.1,5-5c0.8-1.4,1.2-2.6,1.4-3.1c0.2-0.8,0.6-2,0.5-3.6c0-0.8-0.1-2.7-1.3-4.7
	c-0.8-1.4-1.8-2.3-2.6-2.9c-0.4-0.3-0.9-0.7-1.6-1.2c-1.2-0.8-2.2-1.3-3-1.6c-3.9-1.7-10-3.2-11.1-3.5c-0.2,0-1.5-0.4-3.3-0.9
	c-0.9-0.3-1.7-0.6-2.6-1c0,0,0,0,0,0c-0.1-0.1-1.7-0.7-2.5-1.4c-0.1-0.1-0.2-0.2-0.2-0.2c-0.2-0.1-0.4-0.3-0.6-0.5
	c-0.1-0.2-0.4-0.4-0.5-0.8C21.1,14.2,21,14.1,21,14c-0.1-0.2-0.1-0.4-0.1-0.5c0,0,0-0.2,0-0.4c0-0.1,0-0.4,0-0.7
	c0-0.2,0-0.4,0.1-0.6c0-0.2,0.1-0.5,0.4-0.9c0.1-0.1,0.2-0.3,0.5-0.4c0.2-0.1,0.4-0.2,0.5-0.2c0,0,0,0,0,0c0.2-0.1,0.3-0.1,0.5-0.1
	c0.3,0,0.5,0,0.6,0c0.2,0,0.3,0,0.4,0c0.1-0.3,0.1-0.6,0.2-0.9c-0.2,0-0.4,0-0.6,0c-0.2,0-0.6,0-1.1,0.1c-0.2,0.1-0.9,0.3-1.5,0.8
	c-0.5,0.5-0.6,0.9-0.8,1.4c-0.1,0.3-0.3,0.9-0.3,1.5c0,0.3,0,0.8,0.2,1.5c0.3,0.9,0.7,1.4,1.2,1.9c0.8,0.9,1.6,1.4,1.9,1.6
	c2,1.2,3.8,2,4.6,2.4c2,0.9,2.9,1.2,4.8,2c2.3,1,3.5,1.5,4.2,1.8c1,0.5,8.5,4.1,8.5,7.8c0,1.2-0.4,2.4-0.4,2.4
	c-0.3,0.8-0.7,1.4-0.9,1.8c-0.4,0.5-1,1.4-2.1,2.3c-0.4,0.3-1,0.7-1.9,1c0.6-1.3,0.9-2.4,1-3.1c0.1-0.5,0.3-2.4-0.4-4.7
	c-0.1-0.3-0.4-1.4-1.2-2.7c-0.4-0.7-1.5-2.4-3.5-3.8c-1.7-1.2-3.3-1.8-4.4-2c-0.1,0.2-0.1,0.4-0.2,0.7c1.1,0.3,3.2,1,5.2,2.7
	c0.7,0.6,2.3,2,3.2,4.5c0.1,0.3,0.7,1.9,0.7,3.7c0,1.3-0.3,2.5-0.3,2.7c0,0,0,0,0,0c-0.3,1.1-0.7,2-1,2.4C39.1,39.9,39.1,40,39,40
	c-0.4,0.7-0.8,1.2-1.4,1.8c-0.5,0.5-1,1.1-1.8,1.9C35.4,44.2,34.7,44.8,33.9,45.5z"/>
<path class="st2" d="M24.6,9.4c-0.1,0.3-0.1,0.6-0.2,0.9c0.3,0.1,0.6,0.1,0.8,0.2c0.2,0.1,0.4,0.1,0.8,0.2c0.2,0.1,0.4,0.1,0.5,0.2
	c0.1-0.3,0.2-0.5,0.3-0.8c-0.3-0.1-0.5-0.3-0.8-0.3c-0.3-0.1-0.5-0.2-0.7-0.2C25,9.4,24.8,9.4,24.6,9.4z"/>
</svg>
