<?xml version="1.0" encoding="utf-8"?>
<!-- Generator: Adobe Illustrator 21.0.0, SVG Export Plug-In . SVG Version: 6.00 Build 0)  -->
<svg version="1.1" id="Calque_1" xmlns="http://www.w3.org/2000/svg" xmlns:xlink="http://www.w3.org/1999/xlink" x="0px" y="0px"
	 viewBox="0 0 1920 1080" style="enable-background:new 0 0 1920 1080;" xml:space="preserve">
<style type="text/css">
	.st0{fill:#181818;}
	.st1{fill:#FFFFFF;}
	.st2{fill:none;stroke:#000000;stroke-width:1.1752;stroke-miterlimit:10;}
	.st3{stroke:#000000;stroke-width:3.5256;stroke-miterlimit:10;}
	.st4{stroke:#000000;stroke-width:11.752;stroke-miterlimit:10;}
	.st5{stroke:#000000;stroke-width:7.0512;stroke-miterlimit:10;}
</style>
<ellipse transform="matrix(0.3306 -0.9438 0.9438 0.3306 156.6204 1300.8263)" class="st0" cx="995.4" cy="540" rx="540.1" ry="540.1"/>
<ellipse transform="matrix(0.3306 -0.9438 0.9438 0.3306 157.4026 1304.8458)" class="st1" cx="998.6" cy="541.5" rx="489.7" ry="472.6"/>
<g>
	<g>
		<path class="st2" d="M977.1,182.6"/>
	</g>
</g>
<g>
	<g>
		<path class="st2" d="M989.4,191.3"/>
	</g>
</g>
<ellipse transform="matrix(0.4607 -0.8876 0.8876 0.4607 371.1623 999.4628)" class="st3" cx="1008" cy="194.3" rx="14.1" ry="14.1"/>
<path class="st4" d="M1042.6,415.8c-39.5,26.4-140.2,101.8-163.8,227.8c-4.1,21.7-5.4,42.5-4.9,61.8c-53.8,46.6-134,33-166.8-17.8
	c-30.2-46.8-15.7-118.2,39.6-152.7c-4.1-10.6-38-101.9,4.7-155.2C798.3,321.3,931.5,315.9,1042.6,415.8z"/>
<ellipse transform="matrix(0.3306 -0.9438 0.9438 0.3306 237.3803 1387.3589)" class="st5" cx="1096.7" cy="526.3" rx="25.3" ry="25.3"/>
<path d="M1047.2,791c6.2,3.9,15.6,9,28,12.6c5.3,1.5,13.3,3.8,24.1,3.9c6.3,0.1,18.8,0.2,32.3-6.3c7-3.3,11.9-7.3,13.6-8.7
	c4.4-3.7,7.3-7.2,10.1-10.5c3.4-4.1,6-7.8,7.9-10.6c-0.5,2.1-1.4,5.1-2.7,8.5c-3.8,9.3-9.1,15.3-12.5,19c-6.1,6.7-12.5,11.4-18,14.7
	c21.5-0.3,51.7-3.8,84.4-17.9c53.7-23.2,82.6-61.6,93.4-76.2c16.3-22.2,24.9-42.1,28.4-50.8c5.1-12.7,12.8-32.4,14.8-59.2
	c1-13,3-45.6-13.5-82.3c-11.4-25.3-27.2-42.6-39-53.3c-5.8-5.6-14.5-13.7-25.9-22.7c-18.9-14.9-35.8-25-48.2-31.8
	c-63.6-35-164.2-70.9-182.8-77.5c-3.3-1.2-25.6-9-54.2-21.4c-15.2-6.6-28.4-12.7-42.9-20.7c-0.1-0.1-0.4-0.2-0.7-0.4
	c-2.2-1.2-27.2-15.1-40.5-27.8c-1.6-1.5-3.1-3.1-3.1-3.1c-2.4-2.5-5.5-5.6-8.5-9.7c-2.1-2.9-5.5-7.6-8-14.5c-1.2-3.5-1.8-6.4-2-7.4
	c-0.7-3.9-0.8-6.9-0.8-9.3c0-0.7-0.1-3.1,0.1-6.2c0.1-2.2,0.5-6.3,1.6-11.4c0.7-3.5,1.3-6.2,2.6-9.6c1-2.7,3.4-8.6,9-14.1
	c1.4-1.4,4.5-4.4,8.9-6.5c3.6-1.7,7.9-2.8,9.4-3.1c0,0,0,0,0,0c3.3-0.7,5.9-0.7,8-0.8c4.4-0.1,7.8,0.3,10.4,0.6
	c2.7,0.3,5,0.8,6.7,1.1c1.7-5,3.5-10,5.2-15c-2.6-0.4-6.1-0.9-10.4-1.2c-3.6-0.2-11-0.7-18.8,0.6c-4,0.7-15.4,2.8-26,11.5
	c-8.5,7-12.3,14.8-15.9,22.1c-2.5,5.2-6.2,14-7.8,25.6c-0.6,4.5-1.9,14,0.3,25.3c2.9,15.2,10.1,25.1,17.2,34.8
	c11.7,16,24.2,25.5,29.7,29.7c31.8,24.3,61.5,40.9,74.3,48c32.2,17.9,47.3,25.6,78.2,42.3c37.8,20.4,56.6,30.6,68.7,38
	c16.6,10.1,137,83.6,131.4,145.4c-1.8,20.3-11,39.9-11,39.9c-6.4,13.6-13.6,22.6-19,29.1c-7,8.5-18.9,22.8-39.3,34.6
	c-7.5,4.3-18.8,9.9-33.7,13.6c12.7-20.2,18.9-38.8,22.2-51.5c2.3-8.9,9.5-40.3,1.9-80.3c-1-5.3-4.9-24.5-15.8-47.6
	c-5.9-12.5-21.5-42.5-53.3-70.4c-26.6-23.4-53.4-35.5-71-41.9c-1.4,3.7-2.8,7.3-4.1,11c18.8,6.8,52.5,21.9,82.9,54.6
	c10.2,10.9,34.7,38,46.5,81.1c1.4,5.2,8.7,32.7,5.9,63.1c-2,21.9-8.9,41.9-10,45c0,0,0,0,0,0c-6.6,18.7-15.5,32.1-20.2,38.4
	c-1,1.4-1.9,2.5-2.6,3.4c-8.2,10.6-15.9,18.4-26,27.9c-8.8,8.3-18.5,17.4-32.8,28.9C1074.5,771.9,1062,781.2,1047.2,791z"/>
<path d="M949.6,164.4c-1.8,5-3.5,10.1-5.3,15.1c5.5,1.5,9.9,3.1,13.1,4.3c4,1.5,7.2,2.9,12.6,5.2c3.5,1.5,6.5,2.8,8.5,3.7
	c2.4-4.4,4.8-8.8,7.2-13.1c-4.7-3-8.9-5.2-12.2-6.7c-4.6-2.1-8.2-3.4-11.2-4.5C957.4,166.6,953,165.3,949.6,164.4z"/>
</svg>
