<?xml version="1.0" encoding="utf-8"?>
<!-- Generator: Adobe Illustrator 21.0.0, SVG Export Plug-In . SVG Version: 6.00 Build 0)  -->
<svg version="1.1" id="Calque_1" xmlns="http://www.w3.org/2000/svg" xmlns:xlink="http://www.w3.org/1999/xlink" x="0px" y="0px"
	 viewBox="0 0 12 16" style="enable-background:new 0 0 12 16;" xml:space="preserve">
<style type="text/css">
	.st0{fill:none;stroke:#000000;stroke-width:6.495507e-02;stroke-miterlimit:10;}
	.st1{stroke:#000000;stroke-width:6.513122e-02;stroke-miterlimit:10;}
	.st2{stroke:#000000;stroke-width:0.2171;stroke-miterlimit:10;}
	.st3{stroke:#000000;stroke-width:0.1303;stroke-miterlimit:10;}
</style>
<title>Bitcoin_Symbol</title>
<desc>Created with Sketch.</desc>
<g>
	<g>
		<path class="st0" d="M104,1.8"/>
	</g>
</g>
<g>
	<g>
		<path class="st0" d="M104.8,2"/>
	</g>
</g>
<path class="st1" d="M3.5,2.1C3.3,2.1,3.2,2,3.3,1.8s0.1-0.3,0.3-0.2c0.1,0,0.2,0.2,0.2,0.3S3.6,2.1,3.5,2.1z"/>
<path class="st2" d="M5.4,5.6C4.9,6.4,3.6,8.4,4,10.8C4,11.2,4.1,11.6,4.3,12c-0.6,1.2-2.1,1.4-2.9,0.7c-0.8-0.7-1-2-0.2-3
	C1,9.5-0.1,8.1,0.3,6.8C0.7,5.5,2.9,4.5,5.4,5.6z"/>
<ellipse class="st3" cx="6.9" cy="7.3" rx="0.4" ry="0.5"/>
<path d="M7.7,12.4c0.1,0,0.3,0.1,0.5,0.1c0.1,0,0.2,0,0.4-0.1c0.1,0,0.3-0.1,0.5-0.3c0.1-0.1,0.2-0.2,0.2-0.2
	c0.1-0.1,0.1-0.2,0.1-0.3c0-0.1,0.1-0.2,0.1-0.2c0,0,0,0.1,0,0.2c0,0.2-0.1,0.3-0.1,0.4c-0.1,0.2-0.1,0.3-0.2,0.4
	c0.4-0.1,0.8-0.4,1.3-0.9c0.8-0.8,1-1.6,1.1-2c0.1-0.5,0.2-0.9,0.2-1.1c0-0.3,0-0.7-0.1-1.2C11.6,7,11.5,6.4,11,5.8
	c-0.3-0.4-0.7-0.6-1-0.7C9.9,5,9.7,4.9,9.4,4.8C9,4.7,8.7,4.6,8.5,4.6C7.2,4.3,5.3,4.3,4.9,4.3c-0.1,0-0.5,0-1,0
	c-0.3,0-0.6-0.1-0.8-0.1c0,0,0,0,0,0c0,0-0.5-0.1-0.8-0.2c0,0-0.1,0-0.1,0C2.1,3.9,2,3.8,1.9,3.8c-0.1,0-0.1-0.1-0.2-0.2
	c0-0.1-0.1-0.1-0.1-0.1c0-0.1-0.1-0.1-0.1-0.2c0,0,0-0.1,0-0.1c0,0,0-0.1,0-0.2c0-0.1,0-0.1,0-0.2c0-0.1,0-0.2,0.1-0.3
	c0,0,0-0.1,0.1-0.2c0.1-0.1,0.1-0.1,0.1-0.1c0,0,0,0,0,0c0.1,0,0.1-0.1,0.1-0.1C2,2,2.1,2,2.1,2c0,0,0.1,0,0.1,0c0-0.1,0-0.2,0-0.3
	c0,0-0.1,0-0.2,0C2,1.8,1.8,1.8,1.7,1.9C1.7,1.9,1.5,2,1.4,2.2C1.3,2.4,1.2,2.6,1.2,2.7c0,0.1,0,0.3,0,0.5c0,0.1,0.1,0.3,0.2,0.5
	C1.5,4,1.7,4.1,1.9,4.2c0.3,0.2,0.6,0.3,0.7,0.3C3.2,4.8,3.8,4.9,4.1,5C4.7,5.1,5,5.1,5.7,5.3C6.4,5.4,6.8,5.5,7,5.5
	c0.3,0.1,2.8,0.6,3.1,1.8c0.1,0.4,0.1,0.8,0.1,0.8c0,0.3-0.1,0.5-0.1,0.6C9.9,8.9,9.8,9.3,9.5,9.6c-0.1,0.1-0.3,0.3-0.5,0.5
	C9.1,9.6,9.1,9.3,9.1,9c0-0.2-0.1-0.8-0.4-1.5c0-0.1-0.2-0.4-0.5-0.8C8,6.6,7.5,6.1,6.8,5.8C6.2,5.6,5.7,5.5,5.4,5.5
	c0,0.1,0,0.2,0,0.2c0.4,0,1,0.1,1.7,0.5c0.2,0.1,0.8,0.5,1.3,1.2c0.1,0.1,0.3,0.5,0.5,1.1c0.1,0.4,0.1,0.8,0.1,0.9c0,0,0,0,0,0
	c0,0.4-0.1,0.7-0.1,0.8c0,0,0,0.1,0,0.1c-0.1,0.2-0.2,0.4-0.3,0.7c-0.1,0.2-0.2,0.4-0.4,0.7C8,11.9,7.9,12.1,7.7,12.4z"/>
<path d="M2.3,1.7c0,0.1,0,0.2,0,0.3c0.1,0,0.2,0,0.2,0c0.1,0,0.1,0,0.2,0C2.9,2,3,2,3,2c0-0.1,0-0.2,0-0.3c-0.1,0-0.2,0-0.2,0
	c-0.1,0-0.2,0-0.2,0C2.5,1.7,2.4,1.7,2.3,1.7z"/>
</svg>
