<?xml version="1.0" encoding="utf-8"?>
<!-- Generator: Adobe Illustrator 21.0.0, SVG Export Plug-In . SVG Version: 6.00 Build 0)  -->
<svg version="1.1" id="Capa_1" xmlns:sketch="http://www.bohemiancoding.com/sketch/ns"
	 xmlns="http://www.w3.org/2000/svg" xmlns:xlink="http://www.w3.org/1999/xlink" x="0px" y="0px" viewBox="0 0 80 66"
	 style="enable-background:new 0 0 80 66;" xml:space="preserve">
<style type="text/css">
	.st0{fill:#2C3E50;}
	.st1{fill:none;stroke:#000000;stroke-width:6.912516e-02;stroke-miterlimit:10;}
	.st2{fill:#FFFFFF;}
	.st3{fill:#FFFFFF;stroke:#FFFFFF;stroke-miterlimit:10;}
	.st4{fill:#F6A623;}
</style>
<title>fi-bitcoin-circle copy + Oval 356 Copy + ios7-redo copy Copy</title>
<desc>Created with Sketch.</desc>
<ellipse transform="matrix(0.2422 -0.9702 0.9702 0.2422 -7.2216 55.5541)" class="st0" cx="32" cy="32.4" rx="31.5" ry="31.5"/>
<ellipse transform="matrix(0.2422 -0.9702 0.9702 0.2422 -7.1126 55.6295)" class="st0" cx="32.1" cy="32.4" rx="28.5" ry="27.5"/>
<g>
	<g>
		<path class="st1" d="M26,10.3"/>
	</g>
</g>
<g>
	<g>
		<path class="st1" d="M26.8,10.7"/>
	</g>
</g>
<ellipse transform="matrix(0.3712 -0.9285 0.9285 0.3712 7.5625 32.6479)" class="st2" cx="27.9" cy="10.7" rx="0.8" ry="0.8"/>
<path class="st3" d="M31.2,23.5c-2.2,1.8-7.6,6.8-8.3,14.3c-0.1,1.3-0.1,2.5,0.1,3.6c-2.9,3-7.7,2.7-9.9-0.1c-2-2.6-1.6-6.8,1.4-9.2
	c-0.3-0.6-2.8-5.7-0.6-9.1C16.3,19.4,24.1,18.3,31.2,23.5z"/>
<ellipse transform="matrix(0.2363 -0.9717 0.9717 0.2363 -2.1136 56.6392)" class="st2" cx="35" cy="29.7" rx="1.5" ry="1.5"/>
<path class="st2" d="M33.6,45.5c0.4,0.2,1,0.4,1.7,0.6c0.3,0.1,0.8,0.1,1.4,0.1c0.4,0,1.1-0.1,1.9-0.6c0.4-0.2,0.7-0.5,0.7-0.6
	c0.2-0.2,0.4-0.5,0.5-0.7c0.2-0.3,0.3-0.5,0.4-0.7c0,0.1,0,0.3-0.1,0.5c-0.2,0.6-0.4,0.9-0.6,1.2c-0.3,0.4-0.7,0.7-1,1
	c1.3-0.1,3-0.5,4.8-1.5c3-1.7,4.5-4.1,5-5c0.8-1.4,1.2-2.6,1.4-3.1c0.2-0.8,0.6-2,0.5-3.6c0-0.8-0.1-2.7-1.3-4.7
	c-0.8-1.4-1.8-2.3-2.6-2.9c-0.4-0.3-0.9-0.7-1.6-1.2c-1.2-0.8-2.2-1.3-3-1.6c-3.9-1.7-10-3.2-11.1-3.5c-0.2,0-1.5-0.4-3.3-0.9
	c-0.9-0.3-1.7-0.6-2.6-1l0,0c-0.1-0.1-1.7-0.7-2.5-1.4c-0.1-0.1-0.2-0.2-0.2-0.2c-0.2-0.1-0.4-0.3-0.6-0.5c-0.1-0.2-0.4-0.4-0.5-0.8
	c-0.1-0.2-0.2-0.3-0.2-0.4c-0.1-0.2-0.1-0.4-0.1-0.5c0,0,0-0.2,0-0.4c0-0.1,0-0.4,0-0.7c0-0.2,0-0.4,0.1-0.6c0-0.2,0.1-0.5,0.4-0.9
	c0.1-0.1,0.2-0.3,0.5-0.4c0.2-0.1,0.4-0.2,0.5-0.2l0,0c0.2-0.1,0.3-0.1,0.5-0.1c0.3,0,0.5,0,0.6,0c0.2,0,0.3,0,0.4,0
	c0.1-0.3,0.1-0.6,0.2-0.9c-0.2,0-0.4,0-0.6,0s-0.6,0-1.1,0.1c-0.2,0.1-0.9,0.3-1.5,0.8c-0.5,0.5-0.6,0.9-0.8,1.4
	c-0.1,0.3-0.3,0.9-0.3,1.5c0,0.3,0,0.8,0.2,1.5c0.3,0.9,0.7,1.4,1.2,1.9c0.8,0.9,1.6,1.4,1.9,1.6c2,1.2,3.8,2,4.6,2.4
	c2,0.9,2.9,1.2,4.8,2c2.3,1,3.5,1.5,4.2,1.8c1,0.5,8.5,4.1,8.5,7.8c0,1.2-0.4,2.4-0.4,2.4c-0.3,0.8-0.7,1.4-0.9,1.8
	c-0.4,0.5-1,1.4-2.1,2.3c-0.4,0.3-1,0.7-1.9,1c0.6-1.3,0.9-2.4,1-3.1c0.1-0.5,0.3-2.4-0.4-4.7c-0.1-0.3-0.4-1.4-1.2-2.7
	c-0.4-0.7-1.5-2.4-3.5-3.8c-1.7-1.2-3.3-1.8-4.4-2C31,23.5,31,23.7,30.9,24c1.1,0.3,3.2,1,5.2,2.7c0.7,0.6,2.3,2,3.2,4.5
	c0.1,0.3,0.7,1.9,0.7,3.7c0,1.3-0.3,2.5-0.3,2.7l0,0c-0.3,1.1-0.7,2-1,2.4c0.1-0.1,0.1,0,0,0c-0.4,0.7-0.8,1.2-1.4,1.8
	c-0.5,0.5-1,1.1-1.8,1.9C35.1,44.2,34.4,44.8,33.6,45.5z"/>
<path class="st2" d="M24.3,9.4c-0.1,0.3-0.1,0.6-0.2,0.9c0.3,0.1,0.6,0.1,0.8,0.2c0.2,0.1,0.4,0.1,0.8,0.2c0.2,0.1,0.4,0.1,0.5,0.2
	c0.1-0.3,0.2-0.5,0.3-0.8C26.2,10,26,9.8,25.7,9.8c-0.3-0.1-0.5-0.2-0.7-0.2C24.7,9.4,24.5,9.4,24.3,9.4z"/>
<g id="Page-1" sketch:type="MSPage">
	<g id="Copay-v1-Buy-_x2013_-Main" transform="translate(-34.000000, -502.000000)" sketch:type="MSArtboardGroup">
		
			<g id="fi-bitcoin-circle-copy-_x2B_-Oval-356-Copy-_x2B_-ios7-redo-copy-Copy" transform="translate(34.000000, 502.000000)" sketch:type="MSLayerGroup">
			<g id="Oval-356-Copy-_x2B_-ios7-redo-copy" transform="translate(48.000000, 34.000000)" sketch:type="MSShapeGroup">
				<g>
					<circle id="Oval-356-Copy_1_" class="st4" cx="15" cy="15" r="15"/>
					<path class="st2" d="M15,31C6.2,31-1,23.8-1,15S6.2-1,15-1s16,7.2,16,16S23.8,31,15,31z M15,1C7.3,1,1,7.3,1,15s6.3,14,14,14
						s14-6.3,14-14S22.7,1,15,1z"/>
				</g>
				<g id="minus-round" transform="translate(7.000000, 13.800000)">
					<path id="Shape_3_" class="st2" d="M14.7,0H1.2C0.5,0-0.1,0.5-0.1,1.2s0.6,1.2,1.3,1.2h13.5c0.7,0,1.3-0.5,1.3-1.2
						S15.4,0,14.7,0L14.7,0z"/>
				</g>
			</g>
		</g>
	</g>
</g>
</svg>
