<?xml version="1.0" encoding="utf-8"?>
<!-- Generator: Adobe Illustrator 21.0.0, SVG Export Plug-In . SVG Version: 6.00 Build 0)  -->
<svg version="1.1" id="Calque_1" xmlns="http://www.w3.org/2000/svg" xmlns:xlink="http://www.w3.org/1999/xlink" x="0px" y="0px"
	 viewBox="0 0 51 51" style="enable-background:new 0 0 51 51;" xml:space="preserve">
<style type="text/css">
	.st0{fill:#181818;}
	.st1{fill:#FFFFFF;}
	.st2{fill:none;stroke:#000000;stroke-width:5.548092e-02;stroke-miterlimit:10;}
	.st3{stroke:#000000;stroke-width:0.1664;stroke-miterlimit:10;}
	.st4{stroke:#000000;stroke-width:0.5548;stroke-miterlimit:10;}
	.st5{stroke:#000000;stroke-width:0.3329;stroke-miterlimit:10;}
</style>
<title>Oval 87 + bitpay-logo-grayscale</title>
<desc>Created with Sketch.</desc>
<circle class="st0" cx="25.5" cy="25.5" r="25.5"/>
<ellipse class="st1" cx="25.7" cy="25.5" rx="22.3" ry="23.1"/>
<g>
	<g>
		<path class="st2" d="M19.1,9.9"/>
	</g>
</g>
<g>
	<g>
		<path class="st2" d="M19.8,10.1"/>
	</g>
</g>
<ellipse transform="matrix(0.1413 -0.99 0.99 0.1413 7.9457 28.9617)" class="st3" cx="20.7" cy="9.9" rx="0.7" ry="0.7"/>
<path class="st4" d="M25.7,19.2C24.3,21,21,26,21.9,31.9c0.2,1,0.4,2,0.7,2.8c-1.7,2.9-5.5,3.6-7.7,1.8c-2.1-1.6-2.5-5-0.6-7.4
	c-0.3-0.4-3.3-3.9-2.2-7C13.3,18.8,19.2,16.5,25.7,19.2z"/>
<circle class="st5" cx="29.8" cy="23" r="1.2"/>
<path d="M31.7,35.9c0.3,0.1,0.8,0.2,1.4,0.1c0.3,0,0.7,0,1.1-0.2c0.3-0.1,0.8-0.3,1.3-0.8c0.3-0.3,0.4-0.5,0.5-0.6
	c0.1-0.2,0.2-0.4,0.3-0.6c0.1-0.2,0.1-0.4,0.2-0.6c0,0.1,0,0.2,0,0.4c0,0.5-0.2,0.8-0.3,1c-0.2,0.4-0.4,0.7-0.6,0.9
	c1-0.3,2.2-1,3.5-2.1c2-1.9,2.7-4,3-4.9c0.4-1.2,0.5-2.3,0.5-2.7c0-0.6,0.1-1.6-0.3-2.9c-0.2-0.6-0.6-2.1-1.9-3.5
	c-0.9-0.9-1.9-1.5-2.6-1.8c-0.3-0.2-0.9-0.4-1.5-0.6c-1.1-0.4-2-0.6-2.6-0.7C30.4,16,25.4,16,24.5,16c-0.2,0-1.3,0-2.7-0.1
	c-0.8-0.1-1.5-0.1-2.2-0.3c0,0,0,0,0,0c-0.1,0-1.4-0.2-2.2-0.6c-0.1,0-0.2-0.1-0.2-0.1c-0.1-0.1-0.3-0.2-0.5-0.3
	c-0.1-0.1-0.4-0.3-0.6-0.5c-0.1-0.1-0.2-0.3-0.2-0.3c-0.1-0.2-0.1-0.3-0.2-0.4c0,0-0.1-0.1-0.1-0.3c0-0.1-0.1-0.3-0.1-0.5
	c0-0.2,0-0.3,0-0.5c0-0.1,0-0.4,0.2-0.8c0-0.1,0.1-0.3,0.3-0.4c0.1-0.1,0.3-0.2,0.4-0.3l0,0c0.1-0.1,0.3-0.1,0.3-0.2
	c0.2-0.1,0.4-0.1,0.5-0.1c0.1,0,0.2,0,0.3-0.1c0-0.3,0-0.5,0-0.8c-0.1,0-0.3,0.1-0.5,0.1c-0.2,0-0.5,0.1-0.8,0.3
	c-0.2,0.1-0.6,0.4-1,0.9c-0.3,0.4-0.3,0.9-0.4,1.2c0,0.3-0.1,0.7,0.1,1.3c0,0.2,0.1,0.7,0.4,1.1c0.4,0.6,0.8,1,1.3,1.3
	c0.8,0.5,1.5,0.8,1.8,0.9c1.8,0.6,3.4,0.9,4.1,1c1.7,0.3,2.5,0.4,4.1,0.7c2,0.3,3,0.5,3.7,0.6c0.9,0.2,7.4,1.6,8.1,4.4
	c0.2,0.9,0.1,1.9,0.1,1.9c-0.1,0.7-0.3,1.2-0.4,1.6c-0.2,0.5-0.5,1.3-1.2,2.2c-0.3,0.3-0.7,0.7-1.3,1.1c0.3-1.1,0.2-2,0.2-2.6
	c0-0.4-0.2-1.9-1.2-3.6c-0.1-0.2-0.6-1-1.4-1.9c-0.5-0.5-1.6-1.6-3.5-2.3c-1.5-0.6-2.9-0.8-3.8-0.8c0,0.2,0,0.4,0,0.6
	c0.9,0,2.7,0.2,4.5,1.1c0.6,0.3,2.1,1.1,3.3,2.9c0.1,0.2,0.9,1.3,1.2,2.7c0.3,1,0.3,2,0.3,2.2v0c0,0.9-0.2,1.7-0.3,2
	c0,0.1,0,0.1-0.1,0.2c-0.2,0.6-0.4,1.1-0.7,1.7c-0.3,0.5-0.6,1.1-1,1.8C32.6,34.6,32.2,35.2,31.7,35.9z"/>
<path d="M17.6,9.5c0,0.3,0,0.5,0,0.8c0.3,0,0.5,0,0.7,0c0.2,0,0.4,0,0.6,0c0.2,0,0.3,0,0.4,0c0-0.2,0.1-0.5,0.1-0.7
	c-0.3-0.1-0.5-0.1-0.6-0.1c-0.2,0-0.4,0-0.6,0C18,9.5,17.8,9.5,17.6,9.5z"/>
</svg>
