<?xml version="1.0" encoding="utf-8"?>
<!-- Generator: Adobe Illustrator 21.0.0, SVG Export Plug-In . SVG Version: 6.00 Build 0)  -->
<svg version="1.1" id="Calque_1" xmlns="http://www.w3.org/2000/svg" xmlns:xlink="http://www.w3.org/1999/xlink" x="0px" y="0px"
	 viewBox="0 0 84 84" style="enable-background:new 0 0 84 84;" xml:space="preserve">
<style type="text/css">
	.st0{fill:#181818;}
	.st1{fill:#FFFFFF;}
	.st2{fill:none;stroke:#000000;stroke-width:9.153906e-02;stroke-miterlimit:10;}
	.st3{stroke:#000000;stroke-width:0.2746;stroke-miterlimit:10;}
	.st4{stroke:#000000;stroke-width:0.9154;stroke-miterlimit:10;}
	.st5{stroke:#000000;stroke-width:0.5492;stroke-miterlimit:10;}
</style>
<title>Group</title>
<desc>Created with Sketch.</desc>
<circle class="st0" cx="42" cy="42" r="42.1"/>
<ellipse class="st1" cx="42.3" cy="42" rx="36.8" ry="38.1"/>
<g>
	<g>
		<path class="st2" d="M31.5,16.2"/>
	</g>
</g>
<g>
	<g>
		<path class="st2" d="M32.6,16.5"/>
	</g>
</g>
<ellipse transform="matrix(0.1413 -0.99 0.99 0.1413 13.0954 47.6703)" class="st3" cx="34" cy="16.3" rx="1.1" ry="1.1"/>
<path class="st4" d="M42.3,31.7c-2.2,3-7.7,11.1-6.2,21c0.3,1.7,0.7,3.3,1.2,4.7c-2.8,4.8-9,5.9-12.7,3c-3.4-2.7-4.2-8.3-1-12.2
	c-0.6-0.7-5.4-6.5-3.7-11.5C21.9,31,31.5,27.2,42.3,31.7z"/>
<circle class="st5" cx="49.1" cy="38.4" r="2"/>
<path d="M52.3,59.1c0.6,0.1,1.4,0.3,2.4,0.2c0.4,0,1.1-0.1,1.9-0.3c0.5-0.2,1.4-0.5,2.2-1.3c0.4-0.4,0.7-0.8,0.8-1
	c0.2-0.4,0.4-0.7,0.5-1c0.1-0.4,0.2-0.7,0.3-1c0,0.2,0,0.4,0,0.7c0,0.8-0.3,1.4-0.4,1.7c-0.3,0.6-0.6,1.2-0.9,1.5
	c1.6-0.6,3.7-1.6,5.7-3.5c3.3-3.1,4.5-6.7,4.9-8c0.6-2,0.7-3.7,0.8-4.5c0-1.1,0.1-2.7-0.4-4.7c-0.3-1-1-3.4-3.1-5.7
	c-1.5-1.6-3.1-2.4-4.2-2.9c-0.6-0.3-1.4-0.6-2.5-1c-1.8-0.6-3.3-0.9-4.4-1.1c-5.6-0.9-13.9-1-15.4-1c-0.3,0-2.1,0-4.5-0.2
	c-1.3-0.1-2.4-0.2-3.7-0.4c0,0,0,0-0.1,0c-0.2,0-2.4-0.4-3.7-1c-0.2-0.1-0.3-0.1-0.3-0.1c-0.2-0.1-0.5-0.3-0.9-0.5
	c-0.2-0.2-0.6-0.4-1-0.9c-0.2-0.2-0.3-0.4-0.3-0.5c-0.2-0.3-0.2-0.5-0.3-0.7c0-0.1-0.1-0.2-0.1-0.5c0-0.2-0.1-0.5-0.2-0.9
	c0-0.3-0.1-0.5-0.1-0.8c0-0.2,0-0.7,0.3-1.3c0.1-0.1,0.2-0.4,0.5-0.7c0.2-0.2,0.5-0.4,0.6-0.5c0,0,0,0,0,0c0.2-0.1,0.4-0.2,0.6-0.3
	c0.3-0.1,0.6-0.2,0.8-0.2c0.2,0,0.4-0.1,0.5-0.1c0-0.4,0-0.8,0-1.2c-0.2,0-0.5,0.1-0.8,0.2c-0.3,0.1-0.8,0.2-1.4,0.5
	c-0.3,0.2-1.1,0.6-1.6,1.5c-0.4,0.7-0.5,1.4-0.6,2c-0.1,0.4-0.1,1.2,0.1,2.1c0.1,0.3,0.2,1.1,0.7,1.9c0.6,1,1.4,1.6,2.2,2.1
	c1.3,0.9,2.4,1.2,3,1.4c3,1,5.6,1.4,6.7,1.6c2.8,0.5,4.1,0.7,6.8,1.1c3.3,0.5,5,0.8,6,1c1.5,0.3,12.2,2.6,13.4,7.3
	c0.4,1.5,0.2,3.2,0.2,3.2c-0.1,1.2-0.4,2-0.6,2.6c-0.3,0.8-0.8,2.2-2,3.6c-0.4,0.5-1.1,1.2-2.1,1.9c0.4-1.8,0.4-3.3,0.3-4.4
	c-0.1-0.7-0.3-3.2-1.9-6c-0.2-0.4-1-1.7-2.4-3.1c-0.8-0.8-2.7-2.6-5.7-3.8c-2.6-1-4.8-1.2-6.3-1.3c0,0.3,0,0.6,0,0.9
	c1.6,0,4.4,0.3,7.5,1.9c1,0.5,3.5,1.9,5.5,4.8c0.2,0.3,1.5,2.2,2.1,4.5c0.4,1.7,0.4,3.3,0.4,3.6c0,0,0,0,0,0c0,1.5-0.3,2.8-0.5,3.3
	c0,0.1-0.1,0.2-0.1,0.3c-0.3,1-0.7,1.8-1.2,2.7c-0.4,0.8-0.9,1.8-1.7,3C53.8,57,53.1,58,52.3,59.1z"/>
<path d="M29,15.6c0,0.4,0,0.8,0,1.2c0.4,0,0.8,0,1.1,0c0.3,0,0.6,0,1.1,0.1c0.3,0,0.5,0,0.7,0.1c0.1-0.4,0.1-0.8,0.2-1.2
	c-0.4-0.1-0.8-0.2-1.1-0.2c-0.4,0-0.7,0-0.9,0C29.6,15.5,29.2,15.6,29,15.6z"/>
</svg>
