<?xml version="1.0" encoding="utf-8"?>
<!-- Generator: Adobe Illustrator 21.0.0, SVG Export Plug-In . SVG Version: 6.00 Build 0)  -->
<svg version="1.1" id="Calque_1" xmlns="http://www.w3.org/2000/svg" xmlns:xlink="http://www.w3.org/1999/xlink" x="0px" y="0px"
	 viewBox="0 0 49 33" style="enable-background:new 0 0 49 33;" xml:space="preserve">
<style type="text/css">
	.st0{fill:#09C286;}
	.st1{fill:#FFFFFF;}
	.st2{fill:#FFFFFF;stroke:#FFFFFF;stroke-width:0.4123;stroke-miterlimit:10;}
</style>
<title>Group 4</title>
<desc>Created with Sketch.</desc>
<g id="Home_x2F_Overview">
	<g id="Group-4" transform="translate(0.000000, -6.000000)">
		<path id="Combined-Shape" class="st0" d="M15.9,6H0v32h15.9C8.5,34.3,4.5,25.9,6.5,17.7C7.9,12.4,11.4,8.3,15.9,6z M32.7,6H49v32
			H32.7c4.5-2.3,8.1-6.4,9.4-11.7C44.1,18.1,40.1,9.7,32.7,6z"/>
	</g>
</g>
<circle class="st1" cx="24.5" cy="16" r="18.3"/>
<ellipse class="st0" cx="24.6" cy="16" rx="16" ry="16.6"/>
<ellipse transform="matrix(0.1413 -0.99 0.99 0.1413 13.3579 24.5291)" class="st2" cx="20.8" cy="4.6" rx="0.5" ry="0.5"/>
<path class="st2" d="M24.5,11.5c-1,1.3-3.5,5-2.8,9.4c0.1,0.8,0.3,1.5,0.6,2.1c-1.2,2.2-4.1,2.6-5.7,1.3c-1.5-1.2-1.9-3.7-0.5-5.5
	c-0.3-0.3-2.4-2.9-1.6-5.2C15.3,11.2,19.7,9.5,24.5,11.5z"/>
<circle class="st2" cx="27.6" cy="14.5" r="0.9"/>
<path class="st1" d="M29,23.9c0.2,0.1,0.6,0.1,1.1,0.1c0.2,0,0.5,0,0.8-0.1c0.2-0.1,0.6-0.2,1-0.6c0.2-0.2,0.3-0.4,0.3-0.4
	c0.1-0.2,0.2-0.3,0.2-0.5c0.1-0.2,0.1-0.3,0.1-0.4c0,0.1,0,0.2,0,0.3c0,0.4-0.1,0.6-0.2,0.8c-0.1,0.3-0.3,0.5-0.4,0.7
	c0.7-0.3,1.7-0.7,2.6-1.6c1.5-1.4,2-3,2.2-3.6c0.3-0.9,0.3-1.7,0.4-2c0-0.5,0-1.2-0.2-2.1c-0.1-0.4-0.4-1.5-1.4-2.6
	c-0.7-0.7-1.4-1.1-1.9-1.3c-0.3-0.1-0.6-0.3-1.1-0.5c-0.8-0.3-1.5-0.4-2-0.5c-2.5-0.4-6.3-0.4-7-0.4c-0.1,0-1,0-2-0.1
	c-0.6,0-1.1-0.1-1.7-0.2c0,0,0,0,0,0c-0.1,0-1.1-0.2-1.7-0.4c-0.1,0-0.1-0.1-0.1-0.1c-0.1-0.1-0.2-0.1-0.4-0.2
	c-0.1-0.1-0.3-0.2-0.4-0.4c-0.1-0.1-0.1-0.2-0.2-0.2C17.1,7.3,17,7.2,17,7.1c0,0,0-0.1-0.1-0.2c0-0.1-0.1-0.2-0.1-0.4
	c0-0.1,0-0.2,0-0.3c0-0.1,0-0.3,0.1-0.6c0-0.1,0.1-0.2,0.2-0.3c0.1-0.1,0.2-0.2,0.3-0.2c0,0,0,0,0,0C17.5,5,17.6,5,17.7,5
	c0.1-0.1,0.3-0.1,0.4-0.1c0.1,0,0.2,0,0.2,0c0-0.2,0-0.4,0-0.6c-0.1,0-0.2,0-0.4,0.1c-0.1,0-0.4,0.1-0.6,0.2
	c-0.1,0.1-0.5,0.3-0.7,0.7c-0.2,0.3-0.2,0.6-0.3,0.9c0,0.2,0,0.5,0,0.9c0,0.2,0.1,0.5,0.3,0.8c0.3,0.5,0.6,0.7,1,1
	c0.6,0.4,1.1,0.6,1.3,0.6c1.3,0.4,2.5,0.6,3,0.7c1.3,0.2,1.9,0.3,3.1,0.5c1.5,0.2,2.2,0.4,2.7,0.5c0.7,0.1,5.5,1.2,6,3.3
	c0.2,0.7,0.1,1.4,0.1,1.4c-0.1,0.5-0.2,0.9-0.3,1.2c-0.1,0.4-0.4,1-0.9,1.6c-0.2,0.2-0.5,0.5-1,0.8c0.2-0.8,0.2-1.5,0.1-2
	c0-0.3-0.2-1.4-0.9-2.7c-0.1-0.2-0.4-0.8-1.1-1.4c-0.3-0.3-1.2-1.2-2.6-1.7c-1.2-0.5-2.2-0.6-2.8-0.6c0,0.1,0,0.3,0,0.4
	c0.7,0,2,0.1,3.4,0.8c0.5,0.2,1.6,0.9,2.5,2.1c0.1,0.2,0.7,1,0.9,2c0.2,0.7,0.2,1.5,0.2,1.6c0,0,0,0,0,0c0,0.7-0.1,1.2-0.2,1.5
	c0,0.1,0,0.1,0,0.1c-0.1,0.4-0.3,0.8-0.5,1.2c-0.2,0.4-0.4,0.8-0.8,1.3C29.7,22.9,29.4,23.4,29,23.9z"/>
<path class="st1" d="M18.5,4.3c0,0.2,0,0.4,0,0.6c0.2,0,0.4,0,0.5,0c0.2,0,0.3,0,0.5,0c0.1,0,0.2,0,0.3,0c0-0.2,0.1-0.3,0.1-0.5
	c-0.2,0-0.4-0.1-0.5-0.1c-0.2,0-0.3,0-0.4,0C18.8,4.2,18.7,4.2,18.5,4.3z"/>
</svg>
