<?xml version="1.0" encoding="utf-8"?>
<!-- Generator: Adobe Illustrator 21.0.0, SVG Export Plug-In . SVG Version: 6.00 Build 0)  -->
<svg version="1.1" id="Bitcoin_Symbol" xmlns="http://www.w3.org/2000/svg" xmlns:xlink="http://www.w3.org/1999/xlink" x="0px"
	 y="0px" viewBox="0 0 12 16" style="enable-background:new 0 0 12 16;" xml:space="preserve">
<style type="text/css">
	.st0{fill:none;stroke:#000000;stroke-width:2.023246e-02;stroke-miterlimit:10;}
	.st1{stroke:#000000;stroke-width:6.069738e-02;stroke-miterlimit:10;}
	.st2{stroke:#000000;stroke-width:0.2023;stroke-miterlimit:10;}
	.st3{stroke:#000000;stroke-width:0.1214;stroke-miterlimit:10;}
</style>
<g>
	<g>
		<path class="st0" d="M3,2.3"/>
	</g>
</g>
<g>
	<g>
		<path class="st0" d="M3.3,2.4"/>
	</g>
</g>
<ellipse transform="matrix(0.1413 -0.99 0.99 0.1413 0.7877 5.5287)" class="st1" cx="3.6" cy="2.3" rx="0.2" ry="0.2"/>
<path class="st2" d="M5.4,5.7C4.9,6.4,3.7,8.2,4,10.3c0.1,0.4,0.2,0.7,0.3,1c-0.6,1.1-2,1.3-2.8,0.7c-0.8-0.6-0.9-1.8-0.2-2.7
	C1.1,9.2,0.1,7.9,0.5,6.8C0.9,5.6,3,4.7,5.4,5.7z"/>
<circle class="st3" cx="6.9" cy="7.2" r="0.4"/>
<path d="M7.6,11.8c0.1,0,0.3,0.1,0.5,0c0.1,0,0.2,0,0.4-0.1c0.1,0,0.3-0.1,0.5-0.3c0.1-0.1,0.2-0.2,0.2-0.2c0.1-0.1,0.1-0.2,0.1-0.2
	c0-0.1,0.1-0.2,0.1-0.2c0,0,0,0.1,0,0.2c0,0.2-0.1,0.3-0.1,0.4c-0.1,0.1-0.1,0.3-0.2,0.3c0.3-0.1,0.8-0.4,1.3-0.8
	c0.7-0.7,1-1.5,1.1-1.8c0.1-0.5,0.2-0.8,0.2-1c0-0.2,0-0.6-0.1-1c-0.1-0.2-0.2-0.8-0.7-1.3c-0.3-0.3-0.7-0.5-0.9-0.6
	C9.8,5.1,9.6,5.1,9.3,5c-0.4-0.1-0.7-0.2-1-0.2C7.1,4.5,5.3,4.5,5,4.5c-0.1,0-0.5,0-1,0c-0.3,0-0.5,0-0.8-0.1c0,0,0,0,0,0
	c0,0-0.5-0.1-0.8-0.2c0,0-0.1,0-0.1,0C2.2,4.1,2.1,4.1,2.1,4C2,4,1.9,3.9,1.8,3.8c0,0-0.1-0.1-0.1-0.1c0-0.1-0.1-0.1-0.1-0.1
	c0,0,0,0,0-0.1c0,0,0-0.1,0-0.2c0-0.1,0-0.1,0-0.2c0,0,0-0.2,0.1-0.3c0,0,0-0.1,0.1-0.2c0,0,0.1-0.1,0.1-0.1c0,0,0,0,0,0
	c0.1,0,0.1,0,0.1-0.1c0.1,0,0.1,0,0.2,0c0,0,0.1,0,0.1,0c0-0.1,0-0.2,0-0.3c0,0-0.1,0-0.2,0C2.1,2.2,2,2.3,1.9,2.3
	c-0.1,0-0.2,0.1-0.4,0.3C1.4,2.8,1.4,3,1.4,3.1c0,0.1,0,0.3,0,0.5c0,0.1,0,0.2,0.1,0.4C1.7,4.2,1.8,4.3,2,4.4
	c0.3,0.2,0.5,0.3,0.7,0.3C3.3,5,3.9,5.1,4.2,5.1c0.6,0.1,0.9,0.1,1.5,0.2C6.4,5.5,6.8,5.5,7,5.6c0.3,0.1,2.7,0.6,3,1.6
	c0.1,0.3,0,0.7,0,0.7c0,0.3-0.1,0.4-0.1,0.6C9.8,8.7,9.7,9,9.4,9.3C9.3,9.4,9.2,9.5,9,9.7C9,9.3,9,9,9,8.7C9,8.6,8.9,8,8.6,7.4
	c0-0.1-0.2-0.4-0.5-0.7C7.9,6.6,7.5,6.2,6.8,5.9C6.2,5.7,5.7,5.6,5.4,5.6c0,0.1,0,0.1,0,0.2c0.3,0,1,0.1,1.7,0.4
	c0.2,0.1,0.8,0.4,1.2,1.1c0.1,0.1,0.3,0.5,0.5,1C8.8,8.6,8.8,9,8.8,9.1c0,0,0,0,0,0c0,0.3-0.1,0.6-0.1,0.7c0,0,0,0.1,0,0.1
	c-0.1,0.2-0.2,0.4-0.3,0.6c-0.1,0.2-0.2,0.4-0.4,0.7C7.9,11.3,7.8,11.5,7.6,11.8z"/>
<path d="M2.5,2.2c0,0.1,0,0.2,0,0.3c0.1,0,0.2,0,0.2,0c0.1,0,0.1,0,0.2,0c0.1,0,0.1,0,0.2,0c0-0.1,0-0.2,0-0.3c-0.1,0-0.2,0-0.2,0
	c-0.1,0-0.2,0-0.2,0C2.6,2.1,2.5,2.2,2.5,2.2z"/>
</svg>
