<?xml version="1.0" encoding="utf-8"?>
<!-- Generator: Adobe Illustrator 21.0.0, SVG Export Plug-In . SVG Version: 6.00 Build 0)  -->
<svg version="1.1" id="Calque_1" xmlns="http://www.w3.org/2000/svg" xmlns:xlink="http://www.w3.org/1999/xlink" x="0px" y="0px"
	 viewBox="0 0 22 32" style="enable-background:new 0 0 22 32;" xml:space="preserve">
<style type="text/css">
	.st0{fill:none;stroke:#000000;stroke-width:3.812617e-02;stroke-miterlimit:10;}
	.st1{fill:#FFFFFF;stroke:#FFFFFF;stroke-miterlimit:10;}
	.st2{fill:#FFFFFF;stroke:#FFFFFF;stroke-width:0.3813;stroke-miterlimit:10;}
	.st3{fill:#FFFFFF;}
</style>
<g>
	<g>
		<path class="st0" d="M5.4,5.4"/>
	</g>
</g>
<g>
	<g>
		<path class="st0" d="M5.8,5.5"/>
	</g>
</g>
<ellipse transform="matrix(0.1413 -0.99 0.99 0.1413 0.2023 10.9986)" class="st1" cx="6.4" cy="5.4" rx="0.5" ry="0.5"/>
<path class="st2" d="M9.9,11.8C9,13,6.7,16.4,7.3,20.5c0.1,0.7,0.3,1.4,0.5,1.9c-1.1,2-3.7,2.4-5.3,1.2c-1.4-1.1-1.7-3.5-0.4-5.1
	c-0.2-0.3-2.3-2.7-1.5-4.8C1.4,11.5,5.4,9.9,9.9,11.8z"/>
<circle class="st1" cx="12.7" cy="14.6" r="0.8"/>
<path class="st3" d="M14,23.2c0.2,0.1,0.6,0.1,1,0.1c0.2,0,0.4,0,0.8-0.1c0.2-0.1,0.6-0.2,0.9-0.5c0.2-0.2,0.3-0.3,0.3-0.4
	c0.1-0.2,0.1-0.3,0.2-0.4c0.1-0.2,0.1-0.3,0.1-0.4c0,0.1,0,0.2,0,0.3c0,0.3-0.1,0.6-0.2,0.7c-0.1,0.3-0.3,0.5-0.4,0.6
	c0.7-0.2,1.5-0.7,2.4-1.5c1.4-1.3,1.9-2.8,2-3.3c0.3-0.9,0.3-1.6,0.3-1.9c0-0.4,0-1.1-0.2-2C21.3,14,21,13,20.1,12
	c-0.6-0.7-1.3-1-1.8-1.2c-0.2-0.1-0.6-0.3-1-0.4c-0.7-0.3-1.4-0.4-1.8-0.5C13.2,9.6,9.7,9.5,9,9.5c-0.1,0-0.9,0-1.9-0.1
	c-0.5,0-1-0.1-1.5-0.2c0,0,0,0,0,0c-0.1,0-1-0.2-1.5-0.4C4,8.8,3.9,8.8,3.9,8.8c-0.1,0-0.2-0.1-0.4-0.2C3.5,8.5,3.3,8.4,3.2,8.2
	C3.1,8.2,3,8.1,3,8C3,7.9,2.9,7.8,2.9,7.8c0,0,0-0.1-0.1-0.2c0-0.1-0.1-0.2-0.1-0.4c0-0.1,0-0.2,0-0.3c0-0.1,0-0.3,0.1-0.5
	c0-0.1,0.1-0.2,0.2-0.3C3.2,6,3.3,5.9,3.3,5.9c0,0,0,0,0,0c0.1-0.1,0.2-0.1,0.2-0.1c0.1-0.1,0.2-0.1,0.3-0.1c0.1,0,0.2,0,0.2,0
	c0-0.2,0-0.3,0-0.5c-0.1,0-0.2,0-0.3,0.1c-0.1,0-0.3,0.1-0.6,0.2C3.1,5.5,2.8,5.7,2.5,6C2.3,6.3,2.3,6.6,2.3,6.9c0,0.2,0,0.5,0,0.9
	c0,0.1,0.1,0.4,0.3,0.8C2.8,9,3.2,9.2,3.5,9.4C4,9.8,4.5,9.9,4.7,10C6,10.4,7,10.6,7.5,10.7c1.2,0.2,1.7,0.3,2.8,0.5
	c1.4,0.2,2.1,0.3,2.5,0.4c0.6,0.1,5.1,1.1,5.6,3c0.2,0.6,0.1,1.3,0.1,1.3c0,0.5-0.2,0.8-0.3,1.1c-0.1,0.3-0.3,0.9-0.8,1.5
	c-0.2,0.2-0.5,0.5-0.9,0.8c0.2-0.8,0.2-1.4,0.1-1.8c0-0.3-0.1-1.3-0.8-2.5c-0.1-0.2-0.4-0.7-1-1.3c-0.3-0.3-1.1-1.1-2.4-1.6
	c-1.1-0.4-2-0.5-2.6-0.5c0,0.1,0,0.3,0,0.4c0.7,0,1.8,0.1,3.1,0.8c0.4,0.2,1.5,0.8,2.3,2c0.1,0.1,0.6,0.9,0.9,1.9
	c0.2,0.7,0.2,1.4,0.2,1.5c0,0,0,0,0,0c0,0.6-0.1,1.1-0.2,1.4c0,0.1,0,0.1,0,0.1c-0.1,0.4-0.3,0.7-0.5,1.1c-0.2,0.3-0.4,0.7-0.7,1.2
	C14.7,22.4,14.4,22.8,14,23.2z"/>
<path class="st3" d="M4.3,5.1c0,0.2,0,0.3,0,0.5c0.2,0,0.3,0,0.4,0c0.1,0,0.3,0,0.4,0c0.1,0,0.2,0,0.3,0c0-0.2,0.1-0.3,0.1-0.5
	c-0.2,0-0.3-0.1-0.4-0.1c-0.2,0-0.3,0-0.4,0C4.6,5.1,4.4,5.1,4.3,5.1z"/>
</svg>
