<?xml version="1.0" encoding="utf-8"?>
<!-- Generator: Adobe Illustrator 21.0.0, SVG Export Plug-In . SVG Version: 6.00 Build 0)  -->
<svg version="1.1" id="Calque_1" xmlns="http://www.w3.org/2000/svg" xmlns:xlink="http://www.w3.org/1999/xlink" x="0px" y="0px"
	 viewBox="0 0 51 51" style="enable-background:new 0 0 51 51;" xml:space="preserve">
<style type="text/css">
	.st0{fill:#181818;}
	.st1{fill:#FFFFFF;}
	.st2{fill:none;stroke:#000000;stroke-width:5.548092e-02;stroke-miterlimit:10;}
	.st3{stroke:#000000;stroke-width:0.1664;stroke-miterlimit:10;}
	.st4{stroke:#000000;stroke-width:0.5548;stroke-miterlimit:10;}
	.st5{stroke:#000000;stroke-width:0.3329;stroke-miterlimit:10;}
</style>
<title>icon-bitcoin</title>
<desc>Created with Sketch.</desc>
<ellipse transform="matrix(0.9978 -6.615366e-02 6.615366e-02 0.9978 -1.6311 1.7428)" class="st0" cx="25.5" cy="25.5" rx="25.5" ry="25.5"/>
<ellipse transform="matrix(0.9978 -6.615366e-02 6.615366e-02 0.9978 -1.6309 1.7538)" class="st1" cx="25.7" cy="25.5" rx="22.3" ry="23.1"/>
<g>
	<g>
		<path class="st2" d="M18.1,10.3"/>
	</g>
</g>
<g>
	<g>
		<path class="st2" d="M18.8,10.5"/>
	</g>
</g>
<ellipse transform="matrix(7.551299e-02 -0.9971 0.9971 7.551299e-02 7.9374 29.0702)" class="st3" cx="19.6" cy="10.3" rx="0.7" ry="0.7"/>
<path class="st4" d="M25.3,19.2c-1.2,1.9-4.2,7-2.9,12.9c0.2,1,0.6,1.9,0.9,2.8c-1.5,3-5.2,3.9-7.6,2.3c-2.2-1.5-2.9-4.8-1.1-7.4
	c-0.4-0.4-3.5-3.7-2.7-6.8C12.9,19.7,18.6,17,25.3,19.2z"/>
<ellipse transform="matrix(0.9978 -6.615366e-02 6.615366e-02 0.9978 -1.4585 2.0119)" class="st5" cx="29.6" cy="23" rx="1.2" ry="1.2"/>
<path d="M32.4,35.4c0.3,0.1,0.8,0.1,1.4,0c0.3,0,0.6-0.1,1.1-0.3c0.3-0.1,0.8-0.3,1.3-0.9c0.2-0.3,0.4-0.5,0.4-0.6
	c0.1-0.2,0.2-0.4,0.2-0.6c0.1-0.2,0.1-0.5,0.1-0.6c0,0.1,0,0.2,0,0.4c0,0.5-0.1,0.8-0.2,1.1c-0.1,0.4-0.3,0.7-0.5,1
	c0.9-0.4,2.2-1.1,3.3-2.3c1.9-2,2.4-4.2,2.6-5c0.3-1.3,0.3-2.3,0.3-2.7c0-0.6,0-1.6-0.5-2.8c-0.2-0.6-0.7-2-2.1-3.3
	c-1-0.9-2-1.3-2.7-1.6c-0.4-0.1-0.9-0.3-1.5-0.5c-1.1-0.3-2-0.4-2.7-0.5c-3.4-0.3-8.4,0-9.4,0c-0.2,0-1.3,0.1-2.7,0.1
	c-0.8,0-1.5,0-2.2-0.1c0,0,0,0,0,0c-0.1,0-1.5-0.1-2.3-0.5c-0.1,0-0.2-0.1-0.2-0.1c-0.1-0.1-0.3-0.1-0.5-0.3
	c-0.1-0.1-0.4-0.2-0.6-0.5c-0.1-0.1-0.2-0.2-0.2-0.3c-0.1-0.2-0.2-0.3-0.2-0.4c0,0-0.1-0.1-0.1-0.3c0-0.1-0.1-0.3-0.1-0.5
	c0-0.2-0.1-0.3-0.1-0.5c0-0.1,0-0.4,0.1-0.8c0-0.1,0.1-0.3,0.3-0.4c0.1-0.1,0.3-0.3,0.4-0.3c0,0,0,0,0,0c0.1-0.1,0.2-0.1,0.3-0.2
	c0.2-0.1,0.3-0.1,0.5-0.2c0.1,0,0.2-0.1,0.3-0.1c0-0.2,0-0.5-0.1-0.7c-0.1,0-0.3,0.1-0.5,0.1c-0.2,0.1-0.5,0.2-0.8,0.4
	c-0.2,0.1-0.6,0.4-0.9,1c-0.2,0.5-0.3,0.9-0.3,1.3c0,0.3,0,0.7,0.1,1.3c0.1,0.2,0.2,0.6,0.5,1.1c0.4,0.6,0.9,0.9,1.4,1.2
	c0.8,0.5,1.5,0.7,1.8,0.7c1.8,0.5,3.4,0.6,4.1,0.7c1.7,0.2,2.5,0.2,4.2,0.4c2,0.2,3,0.3,3.7,0.4c0.9,0.1,7.5,1.1,8.4,3.9
	c0.3,0.9,0.3,1.9,0.3,1.9c0,0.7-0.2,1.2-0.3,1.6c-0.1,0.5-0.4,1.3-1.1,2.2c-0.2,0.3-0.6,0.8-1.2,1.2c0.2-1.1,0.1-2,0-2.6
	c-0.1-0.4-0.3-1.9-1.4-3.5c-0.1-0.2-0.7-1-1.6-1.8c-0.5-0.4-1.7-1.4-3.6-2.1c-1.6-0.5-3-0.6-3.9-0.5c0,0.2,0,0.4,0,0.6
	c0.9-0.1,2.7,0,4.6,0.8c0.6,0.3,2.2,1,3.5,2.7c0.2,0.2,1,1.3,1.4,2.6c0.3,1,0.4,2,0.4,2.1c0,0,0,0,0,0c0.1,0.9-0.1,1.7-0.2,2
	c0,0.1,0,0.1,0,0.2c-0.2,0.6-0.3,1.1-0.6,1.7c-0.2,0.5-0.5,1.1-0.9,1.9C33.2,34.1,32.9,34.7,32.4,35.4z"/>
<path d="M16.6,10c0,0.3,0,0.5,0.1,0.8c0.3,0,0.5-0.1,0.6-0.1c0.2,0,0.4,0,0.6,0c0.2,0,0.3,0,0.4,0c0-0.2,0-0.5,0.1-0.7
	c-0.3,0-0.5-0.1-0.7-0.1c-0.2,0-0.4,0-0.6,0C16.9,10,16.7,10,16.6,10z"/>
</svg>
